<?xml version="1.0" encoding="utf-8"?>
<!-- Generator: Adobe Illustrator 17.0.0, SVG Export Plug-In . SVG Version: 6.00 Build 0)  -->
<!DOCTYPE svg PUBLIC "-//W3C//DTD SVG 1.1//EN" "http://www.w3.org/Graphics/SVG/1.1/DTD/svg11.dtd">
<svg version="1.1" id="Layer_1" xmlns="http://www.w3.org/2000/svg" xmlns:xlink="http://www.w3.org/1999/xlink" x="0px" y="0px"
	 width="409.271px" height="173.479px" viewBox="11.365 21.26 409.271 173.479"
	 enable-background="new 11.365 21.26 409.271 173.479" xml:space="preserve">
<rect fill="none" width="432" height="216"/>
<g>
	<g>
		<path fill="#0066A8" d="M216.74,169.141c-2.924,0-5.583-0.126-7.977-0.376c-2.395-0.249-4.536-0.712-6.422-1.391
			c-1.888-0.677-3.565-1.604-5.034-2.779c-1.465-1.181-2.69-2.73-3.673-4.658c-0.779-1.354-1.371-2.87-1.778-4.546
			c-0.408-1.675-0.605-3.601-0.591-5.777c0.01-2.175,0.248-4.656,0.708-7.438s1.169-5.955,2.126-9.523
			c1.68-6.275,3.561-11.769,5.645-16.478c2.081-4.708,4.934-8.772,8.563-12.197c2.306-2.211,4.699-3.96,7.183-5.242
			c2.485-1.286,4.974-2.266,7.476-2.944c2.502-0.677,4.951-1.105,7.354-1.284c2.4-0.177,4.674-0.268,6.811-0.268h31.672
			l-4.986,18.619h-20.008c-1.998,0-3.857,0.018-5.578,0.052c-1.725,0.038-3.352,0.252-4.879,0.643
			c-1.535,0.393-2.979,0.98-4.326,1.765c-1.354,0.786-2.656,1.928-3.912,3.426c-0.82,0.929-1.549,1.979-2.189,3.155
			c-0.635,1.178-1.189,2.39-1.668,3.64c-0.479,1.249-0.902,2.441-1.281,3.585c-0.377,1.139-0.691,2.175-0.938,3.099
			c-0.555,2.072-0.953,3.82-1.189,5.246c-0.24,1.429-0.4,2.618-0.479,3.582c-0.082,0.964-0.088,1.731-0.029,2.304
			c0.061,0.569,0.123,0.999,0.191,1.283c0.385,1.498,1.092,2.64,2.131,3.424c1.039,0.786,2.297,1.355,3.766,1.71
			c1.477,0.359,3.129,0.574,4.967,0.645c1.834,0.069,3.752,0.104,5.75,0.104h20.756l-4.99,18.62H216.74V169.141z"/>
		<path fill="#0066A8" d="M331.244,157.906c-0.668,2.497-1.629,4.42-2.885,5.776c-1.256,1.355-2.277,2.319-3.076,2.889
			c-2.523,1.713-5.432,2.569-8.713,2.569h-35.414c-3.072,0-6.227-0.518-9.484-1.552c-3.254-1.034-5.807-2.621-7.658-4.763
			c-1.592-1.781-2.635-3.939-3.133-6.472c-0.5-2.531-0.686-5.173-0.553-7.918c0.129-2.746,0.479-5.528,1.057-8.35
			c0.58-2.814,1.199-5.47,1.871-7.969c0.803-2.994,1.723-6.047,2.773-9.15c1.045-3.099,2.314-6.114,3.813-9.04
			c1.494-2.923,3.291-5.632,5.387-8.13c2.096-2.497,4.598-4.637,7.5-6.422c2.053-1.282,4.172-2.262,6.352-2.941
			c2.176-0.676,4.205-1.176,6.072-1.497c1.867-0.322,3.51-0.518,4.92-0.59c1.408-0.07,2.361-0.106,2.865-0.106h43.652l-4.756,17.762
			h-32.746c-5.986,0-10.859,2.07-14.607,6.205c-1.84,2.07-3.207,4.317-4.104,6.739c-0.904,2.43-1.627,4.677-2.184,6.744
			c-0.555,2.068-1.031,4.317-1.432,6.74c-0.402,2.427-0.221,4.744,0.545,6.954c0.799,2.072,2.002,3.444,3.604,4.121
			c1.602,0.679,3.436,1.015,5.508,1.015h7.271c0.643,0,1.354-0.051,2.133-0.161c0.779-0.104,1.525-0.443,2.25-1.015
			c0.723-0.572,1.26-1.249,1.613-2.032c0.355-0.784,0.635-1.568,0.846-2.355l4.131-15.406h24.18L331.244,157.906z"/>
		<path fill="#0066A8" d="M339.322,150.521h41.516c1.783,0,2.992-0.247,3.627-0.749c0.629-0.497,1.021-1.031,1.176-1.605
			c0.326-1.211,0.051-2.049-0.822-2.511c-0.877-0.467-1.871-0.875-2.99-1.232l-26.818-8.133c-2.055-0.571-3.617-1.407-4.672-2.513
			c-1.061-1.106-1.854-2.156-2.367-3.157c-1.152-2.354-1.559-5.029-1.217-8.025c0.336-2.997,0.881-5.886,1.623-8.667
			c0.631-2.354,1.541-4.884,2.73-7.596c1.191-2.709,3.188-5.171,5.992-7.382c1.537-1.212,3.469-2.301,5.797-3.264
			c2.324-0.962,5.092-1.445,8.303-1.445h49.436l-4.988,18.619h-38.09c-1.428,0-2.404,0.035-2.922,0.105
			c-0.518,0.072-0.9,0.179-1.152,0.321c-0.9,0.428-1.475,1.105-1.723,2.032c-0.326,1.214,0.131,2.104,1.367,2.674
			c1.238,0.574,2.521,1.036,3.855,1.392l23.443,6.744c1.527,0.429,3.156,1.068,4.893,1.923c1.73,0.858,3.094,1.965,4.082,3.318
			c0.836,1.141,1.414,2.445,1.736,3.906s0.439,2.959,0.352,4.494c-0.094,1.536-0.285,3.048-0.58,4.546
			c-0.293,1.498-0.611,2.89-0.957,4.173c-0.592,2.212-1.432,4.674-2.516,7.384c-1.082,2.711-2.785,5.208-5.105,7.49
			c-1.455,1.429-2.893,2.532-4.316,3.316c-1.424,0.786-2.842,1.355-4.258,1.713c-1.414,0.357-2.791,0.569-4.129,0.642
			c-1.34,0.07-2.652,0.107-3.936,0.107h-51.357L339.322,150.521z"/>
	</g>
	<g>
		<path fill="#0066A8" d="M153.58,77.929c-8.124,2.205-18.975,5.644-31.392,9.939c-21.561,7.467-49.272,18.1-62.588,25.037
			c-15.505,8.074-14.575,11.388-14.263,12.471c0.03,0.112,0.084,0.191,0.116,0.285l2.782-1.009
			c-0.054-0.037-0.101-0.061-0.124-0.069c0.18-0.859,2.712-3.86,12.813-9.129c11.048-5.753,35.322-15.489,60.383-24.235
			c18.1-6.313,30.899-10.134,38.477-11.926l9.198-3.766C167.712,74.943,164.422,74.975,153.58,77.929z"/>
		<g>
			<g>
				<path fill="none" d="M104.579,58.521c1.208,0,2.207-0.989,2.207-2.207c0-1.216-0.999-2.182-2.207-2.182
					c-1.216,0-2.183,0.966-2.183,2.182C102.396,57.531,103.363,58.521,104.579,58.521z"/>
				<path fill="none" d="M71.724,44.477c1.153,0,2.119-0.951,2.119-2.12c0-1.177-0.966-2.128-2.119-2.128
					c-1.179,0-2.138,0.951-2.138,2.128C69.586,43.526,70.545,44.477,71.724,44.477z"/>
				<path fill="none" d="M138.115,29.173c1.216,0,2.205-0.991,2.205-2.198c0-1.216-0.989-2.207-2.205-2.207
					s-2.208,0.991-2.208,2.207C135.907,28.183,136.899,29.173,138.115,29.173z"/>
				<path fill="#00AEEF" d="M65.565,149.132c0.996,2.982,1.316,5.891,1.512,8.215c0.311-0.243,0.654-0.49,1.021-0.789
					c5.559-4.308,10.595-7.537,15.185-9.861V65.228c0-4.802-2.922-8.91-7.092-10.655c0-0.032,0.007-0.07,0.007-0.125v-3.009
					c0.966-1.013,1.552-2.37,1.552-3.85v-4.973c0-3.181-2.69-5.761-6.002-5.761c-3.313,0-5.995,2.58-5.995,5.761v4.973
					c0,1.48,0.576,2.837,1.543,3.85v3.009c0,0.055,0.009,0.093,0.009,0.125c-4.163,1.746-7.094,5.854-7.094,10.655v77.324
					C62.697,143.994,64.583,146.178,65.565,149.132z M71.724,40.229c1.153,0,2.119,0.951,2.119,2.128c0,1.169-0.966,2.12-2.119,2.12
					c-1.179,0-2.138-0.951-2.138-2.12C69.586,41.18,70.545,40.229,71.724,40.229z"/>
				<path fill="#00AEEF" d="M149.027,152.927c0.539,1.615,0.865,3.174,1.092,4.653V50.703c0-4.973-3.041-9.245-7.358-11.045
					c0.008-0.04,0.015-0.086,0.015-0.141v-3.11c0.982-1.061,1.591-2.463,1.591-4v-5.16c0-3.297-2.783-5.987-6.221-5.987
					c-3.431,0-6.222,2.689-6.222,5.987v5.16c0,1.537,0.609,2.939,1.599,4v3.11c0,0.055,0.009,0.101,0.009,0.141
					c-4.313,1.8-7.359,6.072-7.359,11.045v96.063c3.563-1.418,7.054-2.343,10.158-2.343
					C142.596,144.423,147.234,147.522,149.027,152.927z M138.115,24.769c1.216,0,2.205,0.991,2.205,2.207
					c0,1.208-0.989,2.198-2.205,2.198s-2.208-0.991-2.208-2.198C135.907,25.759,136.899,24.769,138.115,24.769z"/>
				<path fill="#003C77" d="M108.438,149.809c1.066,2.979,0.912,5.979-0.017,8.816c0.896-0.765,1.842-1.577,2.838-2.487
					c1.691-1.535,3.484-2.875,5.293-4.149v-72c0-4.973-3.031-9.229-7.328-11.015c0-0.055,0-0.102,0-0.133v-3.118
					c0.999-1.052,1.605-2.448,1.605-3.983v-5.145c0-3.305-2.781-5.972-6.212-5.972s-6.212,2.667-6.212,5.972v5.145
					c0,1.536,0.623,2.931,1.599,3.983v3.118c0,0.032,0.014,0.078,0.014,0.133c-4.31,1.785-7.334,6.042-7.334,11.015v63.216
					c1.582-0.341,3.147-0.677,4.553-0.677C102.693,142.528,106.77,145.179,108.438,149.809z M104.579,54.132
					c1.208,0,2.207,0.966,2.207,2.182c0,1.217-0.999,2.207-2.207,2.207c-1.216,0-2.183-0.989-2.183-2.207
					C102.396,55.098,103.363,54.132,104.579,54.132z"/>
			</g>
			<g>
				<path fill="#00AEEF" d="M11.365,168.417c0,0,5.495,0.262,19.621-12.568c11.561-10.482,26.955-14.632,30.089-5.223
					c3.142,9.423-1.645,18.669,9.939,9.685c19.885-15.444,30.603-15.444,32.964-8.905c2.355,6.548-4.716,14.132-10.202,17.539
					c0,0,2.089-9.945-3.93-8.377c-6.009,1.563-25.037,13.413-31.905,10.468c-7.344-3.141-6.025-15.187-10.219-13.87
					C43.543,158.476,27.065,171.819,11.365,168.417z"/>
				<path fill="#003C77" d="M94.819,172.202c0,0,5.505,0.267,19.628-12.55c11.561-10.492,26.941-14.655,30.083-5.236
					c3.141,9.418-1.639,18.668,9.945,9.68c19.871-15.426,30.604-15.426,32.967-8.892c2.339,6.548-4.716,14.133-10.221,17.535
					c0,0,2.104-9.946-3.914-8.378c-6.016,1.573-25.044,13.409-31.919,10.469c-7.32-3.142-6.019-15.178-10.204-13.866
					C127.007,162.257,110.52,175.619,94.819,172.202z"/>
				<path fill="#0066A8" d="M43.14,191.65c0,0,5.486,0.267,19.611-12.555c11.567-10.492,26.956-14.65,30.097-5.231
					c3.134,9.423-1.646,18.669,9.938,9.68c19.885-15.439,30.597-15.439,32.958-8.9c2.354,6.538-4.707,14.123-10.203,17.53
					c0,0,2.096-9.937-3.913-8.373c-6.025,1.577-25.047,13.418-31.921,10.468c-7.335-3.146-6.019-15.173-10.212-13.866
					C75.317,181.714,58.831,195.049,43.14,191.65z"/>
			</g>
		</g>
		<path fill="#0066A8" d="M199.773,76.089l-12.793-8.887c0,0,3.993-3.25,6.628-3.181c2.635,0.07,23.431,4.74,23.79,4.716
			c0.352-0.023,14.326-8.349,16.238-8.473c1.902-0.117,4.365,0.803,4.365,0.803s7.295-0.218,7.039,1.465
			c-0.25,1.7-12.621,8.715-21.438,11.436c0,0-2.043,9.369-4.412,9.619c-2.385,0.28-10.524-3.274-11.475-3.212
			c-0.959,0.063-17.687,6.525-17.905,6.884c-0.21,0.381,0.586,1.652-1.402,2.252c-1.995,0.608-6.072-1.278-6.072-1.278
			s-2.924,1.138-2.768-0.07c0.163-1.209,1.565-1.778,1.565-1.778l-5.722-5.136c0,0,1.545-2.144,4.093-1.59
			c2.564,0.561,8.684,2.798,8.684,2.798L199.773,76.089z"/>
		<path fill="#0066A8" d="M52.735,127.85c1.979-0.126,63.218-9.979,131.447-40.013l-3.617-4.295
			c-67.771,29.832-126.045,41.317-128.01,41.438c-2.821,0.182-3.944-0.14-4.319-0.327l-2.782,1.009
			C46.381,127.957,50.021,128.022,52.735,127.85z"/>
		<path fill="#0066A8" d="M168.983,75.528l-9.198,3.766c2.627-0.631,4.637-1.014,5.985-1.154
			c-14.429,8.037-81.177,35.632-81.177,35.632c0.217-0.07,20.977-7.491,41.671-15.481c42.5-16.377,43.356-19.098,43.763-20.4
			c0.195-0.568,0.103-1.176-0.233-1.644C169.614,75.996,169.428,75.723,168.983,75.528z"/>
	</g>
	<g>
		<path fill="#003C77" d="M158.042,190.258c-0.346,0-0.712-0.019-1.101-0.057c-0.391-0.032-0.772-0.111-1.146-0.233
			c-0.375-0.121-0.725-0.301-1.057-0.534c-0.329-0.235-0.608-0.546-0.834-0.931c-0.238-0.399-0.39-0.833-0.457-1.305
			c-0.065-0.472-0.082-0.95-0.048-1.436c0.032-0.482,0.1-0.964,0.2-1.442c0.1-0.476,0.205-0.924,0.315-1.334
			c0.143-0.53,0.301-1.06,0.479-1.595c0.178-0.534,0.383-1.055,0.614-1.563c0.233-0.504,0.502-0.982,0.809-1.433
			c0.309-0.448,0.661-0.858,1.063-1.229c0.478-0.441,0.971-0.789,1.477-1.036c0.507-0.25,0.999-0.438,1.474-0.567
			c0.476-0.128,0.909-0.205,1.303-0.235c0.396-0.028,0.72-0.042,0.983-0.042h5.804l-0.601,2.245h-4.525
			c-0.399,0-0.787,0.012-1.163,0.03c-0.381,0.023-0.744,0.084-1.093,0.185c-0.351,0.098-0.686,0.242-1.003,0.427
			c-0.318,0.185-0.623,0.437-0.915,0.749c-0.308,0.329-0.623,0.803-0.948,1.421c-0.326,0.621-0.636,1.486-0.935,2.6
			c-0.149,0.558-0.257,1.036-0.323,1.442c-0.069,0.408-0.106,0.754-0.113,1.041c-0.008,0.282,0.005,0.521,0.037,0.704
			c0.033,0.185,0.07,0.334,0.107,0.448c0.216,0.584,0.621,0.971,1.218,1.155c0.601,0.187,1.323,0.28,2.178,0.28h4.898l-0.603,2.245
			L158.042,190.258L158.042,190.258z"/>
		<path fill="#003C77" d="M175.343,178.813c0.382,0.014,0.764,0.061,1.142,0.138c0.378,0.079,0.73,0.2,1.061,0.364
			c0.328,0.163,0.604,0.39,0.829,0.674c0.238,0.299,0.395,0.653,0.471,1.06c0.078,0.406,0.11,0.814,0.095,1.23
			c-0.015,0.413-0.062,0.821-0.141,1.22c-0.08,0.399-0.161,0.747-0.24,1.046c-0.324,1.213-0.719,2.187-1.183,2.922
			c-0.467,0.734-0.955,1.3-1.46,1.698c-0.365,0.287-0.76,0.509-1.182,0.675c-0.423,0.163-0.85,0.287-1.275,0.361
			c-0.428,0.08-0.837,0.129-1.229,0.152c-0.39,0.021-0.745,0.032-1.061,0.032c-0.331,0-0.685-0.012-1.067-0.032
			c-0.378-0.023-0.757-0.072-1.135-0.152c-0.38-0.074-0.734-0.198-1.062-0.361c-0.326-0.166-0.604-0.388-0.831-0.675
			c-0.245-0.313-0.409-0.67-0.489-1.068c-0.077-0.399-0.107-0.81-0.083-1.229c0.024-0.421,0.075-0.829,0.151-1.221
			c0.077-0.393,0.154-0.73,0.23-1.016c0.084-0.314,0.196-0.677,0.334-1.09c0.14-0.415,0.313-0.83,0.522-1.253
			c0.208-0.42,0.46-0.833,0.755-1.239s0.641-0.761,1.037-1.06c0.381-0.284,0.779-0.511,1.193-0.674
			c0.415-0.164,0.835-0.285,1.255-0.364c0.42-0.077,0.824-0.124,1.213-0.138c0.393-0.014,0.751-0.021,1.082-0.021
			C174.604,178.792,174.963,178.8,175.343,178.813z M169.082,186.106c-0.079,0.527-0.003,0.998,0.23,1.411
			c0.248,0.416,0.593,0.675,1.041,0.782s0.891,0.161,1.331,0.161c0.455,0,0.928-0.054,1.418-0.161
			c0.488-0.107,0.969-0.366,1.438-0.782c0.469-0.413,0.804-0.877,1.001-1.389c0.201-0.513,0.368-1.021,0.501-1.519
			c0.057-0.215,0.118-0.441,0.183-0.687c0.07-0.257,0.119-0.521,0.152-0.791c0.03-0.271,0.032-0.536,0.007-0.803
			c-0.024-0.264-0.105-0.502-0.243-0.714c-0.126-0.201-0.277-0.359-0.457-0.483c-0.182-0.121-0.378-0.212-0.587-0.275
			c-0.211-0.065-0.432-0.104-0.661-0.121c-0.229-0.012-0.457-0.019-0.676-0.019c-0.193,0-0.412,0.007-0.657,0.019
			c-0.244,0.017-0.492,0.056-0.745,0.121c-0.251,0.063-0.506,0.154-0.765,0.275c-0.259,0.124-0.502,0.282-0.719,0.483
			c-0.218,0.198-0.413,0.437-0.583,0.707c-0.168,0.269-0.309,0.544-0.425,0.821c-0.117,0.277-0.213,0.546-0.287,0.803
			c-0.077,0.257-0.141,0.479-0.19,0.663C169.263,185.081,169.161,185.578,169.082,186.106z"/>
		<path fill="#003C77" d="M180.985,180.888c0.042-0.156,0.112-0.359,0.215-0.611c0.102-0.247,0.249-0.471,0.438-0.67
			c0.286-0.301,0.603-0.489,0.949-0.569c0.343-0.079,0.641-0.116,0.888-0.116h9.854c0.399,0,0.849,0.056,1.35,0.17
			c0.499,0.117,0.898,0.357,1.199,0.726c0.232,0.317,0.371,0.717,0.413,1.2c0.041,0.485-0.015,1.013-0.167,1.582l-2.053,7.659
			h-2.417l1.948-7.271c0.065-0.245,0.112-0.517,0.138-0.814c0.023-0.302-0.03-0.565-0.16-0.791
			c-0.144-0.243-0.343-0.393-0.603-0.448c-0.261-0.059-0.502-0.087-0.722-0.087h-2.252l-2.522,9.412h-2.418l2.523-9.412h-3.533
			c-0.178,0-0.312,0.021-0.398,0.063s-0.149,0.079-0.186,0.107c-0.035,0.03-0.072,0.081-0.114,0.161
			c-0.042,0.079-0.091,0.224-0.149,0.438l-2.314,8.642h-2.418L180.985,180.888z"/>
		<path fill="#003C77" d="M197.251,193.894h-2.418l3.541-13.221c0.1-0.368,0.249-0.665,0.446-0.887s0.379-0.387,0.547-0.504
			c0.248-0.153,0.504-0.257,0.762-0.299c0.26-0.042,0.492-0.063,0.699-0.063h3.822c0.18,0,0.392,0.012,0.643,0.03
			c0.249,0.023,0.511,0.074,0.783,0.161c0.273,0.086,0.538,0.212,0.799,0.373c0.259,0.166,0.48,0.39,0.666,0.675
			c0.194,0.301,0.323,0.63,0.388,0.984c0.063,0.357,0.082,0.719,0.057,1.093c-0.021,0.368-0.076,0.737-0.158,1.099
			c-0.084,0.366-0.168,0.705-0.252,1.018c-0.1,0.371-0.208,0.749-0.325,1.134c-0.116,0.386-0.255,0.761-0.417,1.135
			c-0.161,0.368-0.348,0.728-0.556,1.066c-0.208,0.343-0.448,0.655-0.717,0.942c-0.365,0.385-0.739,0.688-1.121,0.908
			c-0.384,0.222-0.767,0.387-1.145,0.492c-0.381,0.107-0.741,0.17-1.085,0.193c-0.345,0.021-0.653,0.033-0.929,0.033h-3.058
			L197.251,193.894z M201.486,188.332c0.606,0,1.102-0.119,1.481-0.354c0.379-0.233,0.669-0.467,0.868-0.693
			c0.154-0.173,0.334-0.457,0.539-0.856c0.203-0.398,0.418-1.02,0.644-1.859c0.206-0.772,0.323-1.33,0.355-1.681
			c0.031-0.35,0.034-0.602,0.009-0.761c-0.053-0.368-0.228-0.674-0.52-0.919c-0.294-0.24-0.707-0.362-1.244-0.362h-2.378
			c-0.054,0-0.116,0.019-0.19,0.054c-0.069,0.035-0.132,0.068-0.178,0.096c-0.144,0.114-0.231,0.243-0.27,0.386l-1.864,6.951h2.748
			V188.332z"/>
		<path fill="#003C77" d="M209.331,183.198c0.169-0.628,0.402-1.229,0.701-1.807c0.3-0.578,0.738-1.073,1.318-1.488
			c0.308-0.227,0.63-0.408,0.964-0.546c0.331-0.136,0.652-0.233,0.966-0.297c0.313-0.065,0.611-0.104,0.891-0.119
			c0.278-0.014,0.521-0.021,0.729-0.021h1.631l-0.516,1.925h-1.013c-0.317,0-0.68,0.042-1.088,0.129
			c-0.41,0.086-0.805,0.306-1.19,0.662c-0.31,0.287-0.551,0.621-0.725,1.006c-0.171,0.386-0.313,0.791-0.429,1.219l-1.714,6.396
			h-2.418L209.331,183.198z"/>
		<path fill="#003C77" d="M218.244,190.258c-0.275,0-0.563-0.012-0.859-0.033c-0.297-0.023-0.577-0.084-0.84-0.182
			c-0.264-0.101-0.506-0.245-0.73-0.438c-0.224-0.194-0.401-0.453-0.532-0.782c-0.214-0.541-0.264-1.176-0.153-1.902
			c0.114-0.728,0.271-1.47,0.474-2.224c0.14-0.527,0.284-1.024,0.428-1.488c0.146-0.463,0.316-0.89,0.51-1.281
			c0.196-0.395,0.423-0.752,0.681-1.081c0.262-0.329,0.58-0.627,0.955-0.9c0.377-0.269,0.766-0.474,1.168-0.618
			c0.404-0.143,0.803-0.245,1.189-0.311s0.758-0.103,1.105-0.119c0.348-0.014,0.654-0.019,0.916-0.019
			c0.646,0,1.271,0.037,1.877,0.116c0.605,0.08,1.121,0.282,1.541,0.611c0.262,0.21,0.455,0.455,0.582,0.727
			c0.127,0.271,0.205,0.566,0.236,0.887c0.031,0.319,0.02,0.655-0.031,1.006c-0.055,0.35-0.127,0.702-0.223,1.059
			c-0.076,0.285-0.184,0.579-0.32,0.888c-0.139,0.308-0.355,0.581-0.654,0.823c-0.211,0.173-0.424,0.285-0.641,0.343
			c-0.211,0.057-0.432,0.087-0.652,0.087h-6.363c-0.064,0.24-0.127,0.521-0.182,0.833c-0.057,0.313-0.086,0.556-0.092,0.726
			c0.004,0.301,0.055,0.539,0.16,0.717c0.104,0.18,0.248,0.313,0.428,0.405c0.182,0.096,0.383,0.154,0.602,0.183
			c0.219,0.03,0.439,0.044,0.66,0.044h5.352l-0.516,1.926h-6.076V190.258z M223.443,183.499c0.232,0,0.404-0.072,0.502-0.215
			c0.1-0.145,0.172-0.294,0.215-0.45c0.092-0.356,0.104-0.662,0.027-0.919c-0.074-0.257-0.182-0.455-0.324-0.598
			c-0.238-0.245-0.535-0.39-0.885-0.441c-0.352-0.049-0.699-0.074-1.043-0.074c-0.166,0-0.348,0.005-0.543,0.012
			c-0.191,0.007-0.4,0.032-0.617,0.074c-0.219,0.045-0.443,0.117-0.67,0.227c-0.229,0.105-0.449,0.252-0.664,0.437
			c-0.324,0.287-0.549,0.588-0.668,0.908c-0.121,0.324-0.238,0.667-0.352,1.04L223.443,183.499L223.443,183.499z"/>
		<path fill="#003C77" d="M226.486,188.332h6.156c0.125,0,0.266-0.019,0.426-0.054c0.164-0.035,0.318-0.126,0.467-0.266
			c0.141-0.117,0.234-0.24,0.285-0.376c0.051-0.135,0.09-0.247,0.109-0.331c0.043-0.156,0.066-0.306,0.07-0.45
			c0.002-0.143-0.047-0.278-0.152-0.406c-0.027-0.042-0.072-0.082-0.129-0.117c-0.061-0.037-0.154-0.084-0.285-0.14
			s-0.301-0.121-0.516-0.191c-0.217-0.072-0.5-0.166-0.855-0.28l-1.947-0.598c-0.535-0.156-0.977-0.348-1.314-0.566
			c-0.34-0.222-0.578-0.488-0.713-0.803c-0.139-0.313-0.189-0.64-0.162-0.982c0.027-0.344,0.082-0.656,0.158-0.943
			c0.076-0.284,0.191-0.597,0.346-0.94c0.154-0.343,0.383-0.669,0.689-0.984c0.223-0.227,0.459-0.408,0.703-0.546
			c0.242-0.136,0.484-0.233,0.729-0.297c0.246-0.065,0.49-0.104,0.736-0.119c0.244-0.014,0.482-0.021,0.719-0.021h6.176
			l-0.516,1.925h-5.805c-0.139,0-0.281,0.007-0.43,0.021c-0.148,0.014-0.309,0.077-0.477,0.193
			c-0.182,0.114-0.303,0.238-0.369,0.374c-0.063,0.135-0.117,0.282-0.158,0.436c-0.043,0.159-0.063,0.309-0.068,0.453
			c-0.004,0.14,0.059,0.282,0.186,0.425c0.063,0.072,0.148,0.138,0.258,0.193c0.109,0.057,0.223,0.11,0.342,0.161
			c0.115,0.049,0.23,0.096,0.342,0.14c0.113,0.042,0.203,0.07,0.268,0.084l2.174,0.685c0.607,0.2,1.105,0.39,1.498,0.566
			c0.395,0.18,0.686,0.418,0.883,0.719c0.191,0.313,0.277,0.658,0.258,1.036c-0.016,0.376-0.068,0.724-0.152,1.036
			c-0.186,0.687-0.426,1.216-0.727,1.594c-0.303,0.379-0.578,0.651-0.83,0.824c-0.332,0.212-0.664,0.346-0.994,0.396
			c-0.332,0.049-0.629,0.075-0.891,0.075h-7.002L226.486,188.332z"/>
		<path fill="#003C77" d="M237.457,188.332h6.156c0.125,0,0.266-0.019,0.428-0.054c0.16-0.035,0.316-0.126,0.465-0.266
			c0.141-0.117,0.236-0.24,0.285-0.376c0.049-0.135,0.086-0.247,0.109-0.331c0.043-0.156,0.066-0.306,0.07-0.45
			c0.002-0.143-0.047-0.278-0.15-0.406c-0.029-0.042-0.074-0.082-0.133-0.117c-0.061-0.037-0.156-0.084-0.283-0.14
			c-0.131-0.056-0.303-0.121-0.516-0.191c-0.219-0.072-0.5-0.166-0.855-0.28l-1.951-0.598c-0.531-0.156-0.971-0.348-1.311-0.566
			c-0.342-0.222-0.578-0.488-0.715-0.803c-0.137-0.313-0.191-0.64-0.16-0.982c0.027-0.344,0.082-0.656,0.158-0.943
			c0.078-0.284,0.189-0.597,0.346-0.94c0.154-0.343,0.383-0.669,0.688-0.984c0.225-0.227,0.461-0.408,0.705-0.546
			c0.24-0.136,0.486-0.233,0.729-0.297c0.244-0.065,0.49-0.104,0.732-0.119c0.248-0.014,0.486-0.021,0.721-0.021h6.178l-0.516,1.925
			h-5.807c-0.137,0-0.279,0.007-0.426,0.021c-0.15,0.014-0.309,0.077-0.479,0.193c-0.182,0.114-0.305,0.238-0.369,0.374
			c-0.063,0.135-0.117,0.282-0.158,0.436c-0.043,0.159-0.064,0.309-0.068,0.453c-0.004,0.14,0.059,0.282,0.188,0.425
			c0.061,0.072,0.148,0.138,0.256,0.193c0.109,0.057,0.219,0.11,0.34,0.161c0.117,0.049,0.23,0.096,0.344,0.14
			c0.111,0.042,0.203,0.07,0.266,0.084l2.174,0.685c0.605,0.2,1.107,0.39,1.5,0.566c0.395,0.18,0.686,0.418,0.883,0.719
			c0.191,0.313,0.277,0.658,0.258,1.036c-0.016,0.376-0.07,0.724-0.154,1.036c-0.184,0.687-0.424,1.216-0.725,1.594
			c-0.305,0.379-0.58,0.651-0.832,0.824c-0.33,0.212-0.664,0.346-0.994,0.396c-0.33,0.049-0.627,0.075-0.889,0.075h-7.002
			L237.457,188.332z"/>
		<path fill="#003C77" d="M251.898,190.258c-0.275,0-0.563-0.012-0.857-0.033c-0.297-0.023-0.576-0.084-0.842-0.182
			c-0.264-0.101-0.506-0.245-0.729-0.438c-0.225-0.194-0.402-0.453-0.533-0.782c-0.215-0.541-0.264-1.176-0.154-1.902
			c0.115-0.728,0.271-1.47,0.475-2.224c0.139-0.527,0.285-1.024,0.426-1.488c0.148-0.463,0.318-0.89,0.512-1.281
			c0.195-0.395,0.422-0.752,0.682-1.081s0.578-0.627,0.955-0.9c0.375-0.269,0.766-0.474,1.166-0.618
			c0.406-0.143,0.803-0.245,1.189-0.311c0.389-0.065,0.76-0.103,1.107-0.119c0.348-0.014,0.652-0.019,0.914-0.019
			c0.646,0,1.271,0.037,1.879,0.116c0.604,0.08,1.119,0.282,1.541,0.611c0.26,0.21,0.455,0.455,0.58,0.727
			c0.129,0.271,0.205,0.566,0.238,0.887c0.029,0.319,0.018,0.655-0.033,1.006c-0.053,0.35-0.125,0.702-0.221,1.059
			c-0.078,0.285-0.186,0.579-0.32,0.888c-0.141,0.308-0.357,0.581-0.656,0.823c-0.209,0.173-0.422,0.285-0.639,0.343
			c-0.213,0.057-0.432,0.087-0.654,0.087h-6.363c-0.064,0.24-0.125,0.521-0.182,0.833s-0.084,0.556-0.092,0.726
			c0.006,0.301,0.057,0.539,0.162,0.717c0.102,0.18,0.246,0.313,0.426,0.405c0.184,0.096,0.387,0.154,0.604,0.183
			c0.219,0.03,0.438,0.044,0.66,0.044h5.35l-0.516,1.926h-6.075V190.258z M257.098,183.499c0.234,0,0.404-0.072,0.502-0.215
			c0.102-0.145,0.174-0.294,0.215-0.45c0.094-0.356,0.105-0.662,0.027-0.919c-0.074-0.257-0.182-0.455-0.324-0.598
			c-0.236-0.245-0.533-0.39-0.883-0.441c-0.354-0.049-0.701-0.074-1.043-0.074c-0.166,0-0.35,0.005-0.545,0.012
			c-0.191,0.007-0.398,0.032-0.615,0.074c-0.221,0.045-0.443,0.117-0.67,0.227c-0.229,0.105-0.451,0.252-0.666,0.437
			c-0.324,0.287-0.549,0.588-0.666,0.908c-0.123,0.324-0.238,0.667-0.354,1.04L257.098,183.499L257.098,183.499z"/>
		<path fill="#003C77" d="M273.676,175.285l-3.479,12.984c-0.063,0.24-0.162,0.497-0.289,0.768s-0.268,0.485-0.42,0.642
			c-0.268,0.271-0.547,0.437-0.844,0.492c-0.295,0.057-0.57,0.087-0.818,0.087h-4.318c-0.277,0-0.568-0.026-0.879-0.075
			c-0.311-0.051-0.604-0.154-0.875-0.313c-0.277-0.154-0.516-0.381-0.719-0.672c-0.205-0.292-0.344-0.688-0.418-1.186
			c-0.049-0.329-0.053-0.775-0.012-1.337c0.039-0.565,0.188-1.316,0.439-2.257c0.158-0.6,0.383-1.244,0.662-1.938
			c0.279-0.69,0.684-1.315,1.205-1.871c0.367-0.399,0.754-0.714,1.15-0.94c0.398-0.229,0.781-0.396,1.146-0.504
			c0.367-0.105,0.709-0.173,1.025-0.203c0.318-0.028,0.588-0.042,0.807-0.042h3.244l0.973-3.636h2.42V175.285z M267.002,180.846
			c-0.316,0-0.686,0.057-1.102,0.171c-0.416,0.116-0.814,0.392-1.191,0.835c-0.18,0.201-0.369,0.497-0.574,0.896
			c-0.203,0.401-0.408,0.984-0.615,1.757c-0.236,0.883-0.363,1.503-0.385,1.857c-0.02,0.357-0.02,0.586-0.008,0.687
			c0.049,0.284,0.139,0.511,0.271,0.684c0.133,0.171,0.289,0.299,0.467,0.385c0.176,0.087,0.361,0.143,0.563,0.171
			c0.199,0.03,0.389,0.044,0.568,0.044h1.941c0.053,0,0.156-0.007,0.305-0.021c0.15-0.017,0.275-0.065,0.381-0.152
			c0.121-0.084,0.209-0.214,0.271-0.394c0.063-0.178,0.104-0.311,0.127-0.397l1.748-6.522h-2.767V180.846z"/>
		<path fill="#003C77" d="M290.178,188.332c-0.104,0.385-0.244,0.698-0.418,0.94c-0.176,0.243-0.346,0.42-0.514,0.534
			c-0.236,0.157-0.496,0.271-0.787,0.344c-0.283,0.069-0.533,0.107-0.738,0.107h-6.156c-0.814,0-1.463-0.126-1.947-0.376
			c-0.482-0.25-0.852-0.516-1.105-0.803c-0.338-0.385-0.566-0.826-0.689-1.325c-0.121-0.5-0.17-1.022-0.146-1.573
			c0.023-0.549,0.094-1.106,0.213-1.676c0.117-0.571,0.248-1.122,0.389-1.649c0.164-0.611,0.355-1.237,0.574-1.869
			c0.221-0.638,0.486-1.249,0.803-1.839c0.318-0.596,0.699-1.142,1.145-1.65c0.445-0.506,0.984-0.936,1.617-1.293
			c1.072-0.613,2.318-0.919,3.738-0.919h7.188l-0.602,2.245h-6.422c-0.785,0-1.484,0.14-2.096,0.417
			c-0.611,0.278-1.125,0.68-1.543,1.207c-0.102,0.116-0.211,0.269-0.332,0.46c-0.119,0.195-0.244,0.434-0.375,0.719
			c-0.133,0.284-0.275,0.627-0.42,1.026c-0.15,0.399-0.297,0.87-0.441,1.412c-0.145,0.541-0.252,1.015-0.32,1.421
			c-0.066,0.406-0.113,0.761-0.137,1.06c-0.025,0.299-0.031,0.546-0.014,0.737s0.039,0.346,0.063,0.46
			c0.135,0.628,0.414,1.043,0.844,1.251c0.426,0.207,0.928,0.313,1.506,0.313h3.533c0.123,0,0.252-0.012,0.383-0.035
			c0.129-0.021,0.264-0.089,0.404-0.203c0.139-0.112,0.24-0.24,0.299-0.385c0.061-0.143,0.105-0.271,0.135-0.383l1.096-4.089h2.727
			L290.178,188.332z"/>
		<path fill="#003C77" d="M301.17,178.921c0.471,0,0.883,0.079,1.24,0.233c0.357,0.158,0.623,0.373,0.799,0.644
			c0.168,0.243,0.27,0.589,0.301,1.036c0.029,0.448-0.041,0.994-0.213,1.636l-1.576,5.881c-0.053,0.201-0.141,0.446-0.268,0.729
			c-0.121,0.287-0.309,0.527-0.555,0.728c-0.246,0.199-0.514,0.325-0.803,0.376c-0.289,0.049-0.564,0.075-0.826,0.075h-5.229
			c-0.303,0-0.625-0.021-0.961-0.063c-0.34-0.044-0.633-0.208-0.873-0.494c-0.166-0.199-0.279-0.43-0.338-0.693
			c-0.061-0.267-0.084-0.539-0.07-0.824c0.014-0.287,0.051-0.564,0.109-0.833c0.061-0.272,0.117-0.516,0.176-0.728
			c0.133-0.5,0.314-0.992,0.551-1.478c0.232-0.485,0.607-0.912,1.117-1.283c0.43-0.313,0.826-0.502,1.197-0.567
			c0.367-0.063,0.693-0.096,0.982-0.096h4.756l0.211-0.791c0.047-0.17,0.074-0.348,0.09-0.537c0.018-0.184-0.02-0.361-0.113-0.534
			c-0.107-0.212-0.262-0.348-0.461-0.403c-0.197-0.059-0.391-0.087-0.586-0.087h-5.393l0.516-1.925h6.22V178.921z M296.143,185.123
			c-0.084,0-0.225,0.02-0.416,0.052c-0.195,0.037-0.391,0.147-0.574,0.331c-0.059,0.059-0.145,0.173-0.26,0.344
			c-0.113,0.172-0.229,0.464-0.338,0.877c-0.047,0.171-0.086,0.385-0.119,0.642c-0.037,0.257,0.002,0.465,0.109,0.621
			c0.061,0.086,0.154,0.163,0.281,0.235c0.125,0.07,0.262,0.107,0.412,0.107h3.371c0.066,0,0.156-0.002,0.258-0.012
			c0.105-0.007,0.211-0.044,0.313-0.116s0.172-0.147,0.205-0.227c0.035-0.077,0.064-0.161,0.088-0.245l0.697-2.609H296.143z"/>
		<path fill="#003C77" d="M303.318,188.332h6.156c0.125,0,0.266-0.019,0.426-0.054c0.164-0.035,0.318-0.126,0.467-0.266
			c0.141-0.117,0.234-0.24,0.285-0.376c0.051-0.135,0.088-0.247,0.109-0.331c0.043-0.156,0.066-0.306,0.07-0.45
			c0.002-0.143-0.047-0.278-0.152-0.406c-0.027-0.042-0.072-0.082-0.131-0.117c-0.061-0.037-0.152-0.084-0.283-0.14
			s-0.301-0.121-0.516-0.191c-0.219-0.072-0.5-0.166-0.855-0.28l-1.947-0.598c-0.535-0.156-0.977-0.348-1.314-0.566
			c-0.34-0.222-0.578-0.488-0.715-0.803c-0.137-0.313-0.188-0.64-0.16-0.982c0.027-0.344,0.082-0.656,0.158-0.943
			c0.074-0.284,0.191-0.597,0.346-0.94c0.154-0.343,0.383-0.669,0.688-0.984c0.225-0.227,0.461-0.408,0.705-0.546
			c0.24-0.136,0.484-0.233,0.729-0.297c0.246-0.065,0.49-0.104,0.734-0.119c0.246-0.014,0.484-0.021,0.719-0.021h6.178l-0.516,1.925
			h-5.807c-0.137,0-0.279,0.007-0.43,0.021c-0.146,0.014-0.307,0.077-0.475,0.193c-0.182,0.114-0.305,0.238-0.369,0.374
			c-0.063,0.135-0.117,0.282-0.158,0.436c-0.043,0.159-0.064,0.309-0.068,0.453c-0.004,0.14,0.059,0.282,0.184,0.425
			c0.064,0.072,0.15,0.138,0.26,0.193c0.109,0.057,0.223,0.11,0.342,0.161c0.115,0.049,0.23,0.096,0.342,0.14
			c0.113,0.042,0.203,0.07,0.266,0.084l2.176,0.685c0.607,0.2,1.105,0.39,1.498,0.566c0.395,0.18,0.686,0.418,0.883,0.719
			c0.191,0.313,0.277,0.658,0.258,1.036c-0.016,0.376-0.07,0.724-0.154,1.036c-0.184,0.687-0.424,1.216-0.725,1.594
			c-0.303,0.379-0.578,0.651-0.832,0.824c-0.33,0.212-0.662,0.346-0.994,0.396c-0.33,0.049-0.627,0.075-0.889,0.075h-7.002
			L303.318,188.332z"/>
		<path fill="#003C77" d="M319.395,188.013h8.016c0.332,0,0.602-0.063,0.814-0.185s0.385-0.269,0.523-0.438
			c0.133-0.171,0.232-0.348,0.305-0.534c0.07-0.185,0.123-0.344,0.158-0.47c0.037-0.145,0.064-0.291,0.078-0.45
			c0.014-0.156-0.008-0.308-0.064-0.46c-0.055-0.149-0.16-0.291-0.305-0.429c-0.152-0.136-0.373-0.252-0.66-0.351l-5.207-1.862
			c-0.051-0.014-0.133-0.047-0.252-0.096s-0.248-0.121-0.387-0.215c-0.141-0.091-0.283-0.2-0.428-0.331
			c-0.145-0.128-0.262-0.284-0.35-0.469c-0.111-0.201-0.184-0.423-0.215-0.663c-0.031-0.245-0.039-0.49-0.027-0.739
			c0.012-0.248,0.041-0.495,0.092-0.737c0.051-0.241,0.107-0.472,0.166-0.687c0.121-0.455,0.299-0.934,0.537-1.431
			c0.236-0.502,0.617-0.949,1.135-1.349c0.471-0.371,0.934-0.603,1.383-0.693c0.453-0.096,0.859-0.14,1.217-0.14h8.326l-0.602,2.245
			h-7.398c-0.191,0-0.393,0.019-0.602,0.054c-0.209,0.037-0.418,0.13-0.623,0.289c-0.227,0.17-0.385,0.371-0.484,0.6
			c-0.092,0.227-0.16,0.411-0.197,0.553c-0.088,0.329-0.094,0.645-0.016,0.943c0.078,0.301,0.381,0.548,0.904,0.749l4.826,1.733
			c0.441,0.154,0.805,0.32,1.098,0.49c0.289,0.173,0.518,0.364,0.68,0.576c0.164,0.215,0.273,0.455,0.328,0.719
			c0.051,0.264,0.074,0.527,0.064,0.792c-0.01,0.264-0.033,0.516-0.078,0.758c-0.045,0.243-0.09,0.448-0.137,0.621
			c-0.125,0.471-0.301,0.949-0.521,1.444c-0.221,0.492-0.535,0.938-0.945,1.337c-0.49,0.483-0.969,0.784-1.439,0.896
			c-0.473,0.114-0.949,0.173-1.432,0.173h-8.885L319.395,188.013z"/>
		<path fill="#003C77" d="M334.609,193.914h-2.457l2.664-3.701l-1.848-11.292h2.5l1.178,8.704l6.039-8.662h2.459L334.609,193.914z"
			/>
		<path fill="#003C77" d="M342.9,188.332h6.156c0.125,0,0.266-0.019,0.428-0.054s0.316-0.126,0.467-0.266
			c0.139-0.117,0.232-0.24,0.283-0.376c0.053-0.135,0.09-0.247,0.109-0.331c0.043-0.156,0.066-0.306,0.07-0.45
			c0.002-0.143-0.047-0.278-0.15-0.406c-0.029-0.042-0.072-0.082-0.131-0.117c-0.061-0.037-0.154-0.084-0.285-0.14
			s-0.301-0.121-0.516-0.191c-0.217-0.072-0.5-0.166-0.854-0.28l-1.949-0.598c-0.535-0.156-0.975-0.348-1.314-0.566
			c-0.34-0.222-0.578-0.488-0.713-0.803c-0.139-0.313-0.189-0.64-0.162-0.982c0.029-0.344,0.082-0.656,0.158-0.943
			c0.076-0.284,0.191-0.597,0.346-0.94c0.154-0.343,0.383-0.669,0.689-0.984c0.223-0.227,0.459-0.408,0.705-0.546
			c0.24-0.136,0.482-0.233,0.727-0.297c0.246-0.065,0.49-0.104,0.736-0.119c0.244-0.014,0.482-0.021,0.719-0.021h6.176l-0.516,1.925
			h-5.805c-0.139,0-0.281,0.007-0.43,0.021c-0.146,0.014-0.309,0.077-0.477,0.193c-0.182,0.114-0.303,0.238-0.369,0.374
			c-0.063,0.135-0.115,0.282-0.158,0.436c-0.041,0.159-0.063,0.309-0.068,0.453c-0.004,0.14,0.059,0.282,0.186,0.425
			c0.063,0.072,0.148,0.138,0.258,0.193c0.111,0.057,0.223,0.11,0.342,0.161c0.117,0.049,0.23,0.096,0.342,0.14
			c0.113,0.042,0.203,0.07,0.268,0.084l2.174,0.685c0.607,0.2,1.107,0.39,1.498,0.566c0.395,0.18,0.688,0.418,0.883,0.719
			c0.191,0.313,0.277,0.658,0.26,1.036c-0.018,0.376-0.07,0.724-0.154,1.036c-0.186,0.687-0.426,1.216-0.727,1.594
			c-0.303,0.379-0.578,0.651-0.83,0.824c-0.332,0.212-0.664,0.346-0.994,0.396c-0.332,0.049-0.629,0.075-0.889,0.075h-7.004
			L342.9,188.332z"/>
		<path fill="#003C77" d="M358.211,190.258c-0.744,0-1.314-0.068-1.713-0.203c-0.396-0.136-0.73-0.346-0.998-0.633
			c-0.275-0.299-0.451-0.67-0.518-1.11c-0.068-0.441-0.004-1.027,0.191-1.755l1.529-5.711h-1.508l0.518-1.925h1.506l0.975-3.636
			h2.416l-0.973,3.636h3.057l-0.516,1.925h-3.057l-1.221,4.556c-0.053,0.2-0.111,0.415-0.172,0.642
			c-0.059,0.215-0.098,0.427-0.119,0.642c-0.023,0.213-0.02,0.425,0.016,0.63c0.033,0.208,0.121,0.383,0.264,0.525
			c0.211,0.24,0.5,0.385,0.863,0.43c0.369,0.042,0.664,0.063,0.883,0.063h0.6l-0.516,1.926h-1.507V190.258z"/>
		<path fill="#003C77" d="M364.471,190.258c-0.275,0-0.561-0.012-0.859-0.033c-0.299-0.023-0.578-0.084-0.84-0.182
			c-0.264-0.101-0.506-0.245-0.73-0.438c-0.225-0.194-0.402-0.453-0.533-0.782c-0.215-0.541-0.264-1.176-0.152-1.902
			c0.113-0.728,0.27-1.47,0.473-2.224c0.141-0.527,0.285-1.024,0.43-1.488c0.145-0.463,0.314-0.89,0.508-1.281
			c0.197-0.395,0.424-0.752,0.682-1.081c0.262-0.329,0.58-0.627,0.955-0.9c0.375-0.269,0.766-0.474,1.166-0.618
			c0.404-0.143,0.801-0.245,1.191-0.311c0.387-0.065,0.758-0.103,1.104-0.119c0.35-0.014,0.656-0.019,0.916-0.019
			c0.646,0,1.273,0.037,1.879,0.116c0.605,0.08,1.121,0.282,1.541,0.611c0.262,0.21,0.455,0.455,0.58,0.727
			c0.129,0.271,0.209,0.566,0.238,0.887c0.031,0.319,0.021,0.655-0.029,1.006c-0.057,0.35-0.129,0.702-0.225,1.059
			c-0.076,0.285-0.184,0.579-0.32,0.888c-0.137,0.308-0.357,0.581-0.654,0.823c-0.211,0.173-0.424,0.285-0.641,0.343
			c-0.215,0.057-0.432,0.087-0.652,0.087h-6.365c-0.063,0.24-0.125,0.521-0.18,0.833s-0.086,0.556-0.092,0.726
			c0.004,0.301,0.055,0.539,0.16,0.717c0.104,0.18,0.248,0.313,0.428,0.405c0.182,0.096,0.383,0.154,0.602,0.183
			c0.219,0.03,0.439,0.044,0.66,0.044h5.352l-0.516,1.926h-6.077V190.258z M369.67,183.499c0.232,0,0.4-0.072,0.502-0.215
			c0.1-0.145,0.17-0.294,0.211-0.45c0.098-0.356,0.107-0.662,0.031-0.919c-0.074-0.257-0.186-0.455-0.324-0.598
			c-0.238-0.245-0.533-0.39-0.885-0.441c-0.354-0.049-0.701-0.074-1.043-0.074c-0.166,0-0.348,0.005-0.541,0.012
			c-0.195,0.007-0.402,0.032-0.619,0.074c-0.219,0.045-0.441,0.117-0.67,0.227c-0.229,0.105-0.451,0.252-0.664,0.437
			c-0.326,0.287-0.549,0.588-0.67,0.908c-0.117,0.324-0.236,0.667-0.352,1.04L369.67,183.499L369.67,183.499z"/>
		<path fill="#003C77" d="M374.852,180.888c0.043-0.156,0.113-0.359,0.215-0.611c0.102-0.247,0.25-0.471,0.439-0.67
			c0.287-0.301,0.602-0.489,0.949-0.569c0.342-0.079,0.641-0.116,0.887-0.116h9.855c0.398,0,0.848,0.056,1.348,0.17
			c0.5,0.117,0.898,0.357,1.201,0.726c0.23,0.317,0.371,0.717,0.412,1.2c0.043,0.485-0.014,1.013-0.168,1.582l-2.051,7.659h-2.418
			l1.949-7.271c0.064-0.245,0.111-0.517,0.137-0.814c0.023-0.302-0.029-0.565-0.16-0.791c-0.143-0.243-0.342-0.393-0.604-0.448
			c-0.26-0.059-0.5-0.087-0.721-0.087h-2.252l-2.521,9.412h-2.418l2.521-9.412h-3.533c-0.176,0-0.313,0.021-0.396,0.063
			c-0.088,0.042-0.148,0.079-0.186,0.107c-0.035,0.03-0.072,0.081-0.115,0.161c-0.041,0.079-0.09,0.224-0.148,0.438l-2.314,8.642
			h-2.418L374.852,180.888z"/>
		<path fill="#003C77" d="M390.047,188.332h6.156c0.125,0,0.266-0.019,0.428-0.054c0.16-0.035,0.316-0.126,0.465-0.266
			c0.141-0.117,0.236-0.24,0.285-0.376c0.049-0.135,0.086-0.247,0.109-0.331c0.043-0.156,0.066-0.306,0.07-0.45
			c0.002-0.143-0.047-0.278-0.148-0.406c-0.031-0.042-0.076-0.082-0.135-0.117c-0.061-0.037-0.156-0.084-0.283-0.14
			c-0.131-0.056-0.301-0.121-0.516-0.191c-0.219-0.072-0.5-0.166-0.855-0.28l-1.951-0.598c-0.531-0.156-0.971-0.348-1.311-0.566
			c-0.34-0.222-0.578-0.488-0.715-0.803c-0.137-0.313-0.191-0.64-0.16-0.982c0.027-0.344,0.082-0.656,0.158-0.943
			c0.078-0.284,0.189-0.597,0.346-0.94c0.154-0.343,0.383-0.669,0.688-0.984c0.225-0.227,0.461-0.408,0.705-0.546
			c0.24-0.136,0.486-0.233,0.729-0.297c0.246-0.065,0.49-0.104,0.732-0.119c0.248-0.014,0.486-0.021,0.721-0.021h6.178l-0.516,1.925
			h-5.807c-0.137,0-0.279,0.007-0.426,0.021c-0.15,0.014-0.309,0.077-0.479,0.193c-0.182,0.114-0.305,0.238-0.369,0.374
			c-0.063,0.135-0.117,0.282-0.158,0.436c-0.043,0.159-0.064,0.309-0.068,0.453c-0.004,0.14,0.059,0.282,0.188,0.425
			c0.061,0.072,0.148,0.138,0.256,0.193c0.109,0.057,0.219,0.11,0.342,0.161c0.115,0.049,0.229,0.096,0.342,0.14
			c0.113,0.042,0.203,0.07,0.266,0.084l2.174,0.685c0.605,0.2,1.107,0.39,1.5,0.566c0.395,0.18,0.686,0.418,0.883,0.719
			c0.191,0.313,0.277,0.658,0.258,1.036c-0.016,0.376-0.07,0.724-0.154,1.036c-0.184,0.687-0.424,1.216-0.725,1.594
			c-0.303,0.379-0.578,0.651-0.832,0.824c-0.33,0.212-0.664,0.346-0.994,0.396c-0.33,0.049-0.627,0.075-0.889,0.075h-7.002
			L390.047,188.332z"/>
	</g>
</g>
</svg>
